<svg xmlns="http://www.w3.org/2000/svg" width="1200" height="600" viewBox="0 0 1200 600">
<defs>
<linearGradient id="edge" x1="0" y1="0" x2="1" y2="1"><stop offset="0" stop-color="#9FD9C2"/><stop offset="1" stop-color="#E9A8BE"/></linearGradient>
</defs>
<rect width="1200" height="600" fill="#FAF7F2"/>
<rect x="22" y="22" width="1156" height="556" rx="30" fill="#FFFFFF" stroke="url(#edge)" stroke-width="2.5"/>
<text x="74" y="86" font-family="DM Sans 9pt" font-weight="700" font-size="13" letter-spacing="3.2" fill="#1D6B51">THE COACH’S AI STARTER KIT</text>
<text x="72" y="138" font-family="Plus Jakarta Sans" font-weight="800" font-size="44" fill="#1A1F1E">Less busywork. <tspan fill="#1D6B51">More presence.</tspan></text>
<rect x="74" y="240" width="290" height="248" rx="18" fill="#F4F1EA" stroke="#E6E0D5" stroke-width="1.5"/>
<text x="100" y="284" font-family="DM Sans 9pt" font-weight="700" font-size="20" fill="#1A1F1E">Raw notes</text>
<rect x="100" y="318" width="216" height="7" rx="3.5" fill="#C9CCD2" opacity="0.85"/>
<rect x="103" y="345" width="188" height="7" rx="3.5" fill="#C9CCD2" opacity="0.85"/>
<line x1="100" y1="348.5" x2="295" y2="348.5" stroke="#B72F60" stroke-width="2.4" stroke-linecap="round" opacity="0.9"/>
<rect x="100" y="372" width="230" height="7" rx="3.5" fill="#C9CCD2" opacity="0.85"/>
<rect x="103" y="399" width="150" height="7" rx="3.5" fill="#C9CCD2" opacity="0.85"/>
<rect x="100" y="426" width="200" height="7" rx="3.5" fill="#C9CCD2" opacity="0.85"/>
<line x1="97" y1="429.5" x2="304" y2="429.5" stroke="#B72F60" stroke-width="2.4" stroke-linecap="round" opacity="0.9"/>
<rect x="103" y="453" width="168" height="7" rx="3.5" fill="#C9CCD2" opacity="0.85"/>
<line x1="386" y1="372" x2="436" y2="372" stroke="#2C4D4D" stroke-width="4" stroke-linecap="round"/>
<path d="M 432 364 L 444 372 L 432 380" fill="none" stroke="#2C4D4D" stroke-width="4" stroke-linecap="round" stroke-linejoin="round"/>
<rect x="460" y="307" width="292" height="56" rx="28.0" fill="#D4F2E6" stroke="#9FD9C2" stroke-width="1.6"/>
<circle cx="486" cy="335.0" r="5" fill="#1D6B51"/>
<text x="504" y="341.0" font-family="DM Sans 9pt" font-weight="700" font-size="19" fill="#1D6B51">session-prep</text>
<rect x="460" y="381" width="292" height="56" rx="28.0" fill="#F8DDE6" stroke="#E9A8BE" stroke-width="1.6"/>
<circle cx="486" cy="409.0" r="5" fill="#B72F60"/>
<text x="504" y="415.0" font-family="DM Sans 9pt" font-weight="700" font-size="19" fill="#B72F60">between-session-synth</text>
<path d="M 758 335.0 C 758.5 335.0, 758.5 300, 753 300" fill="none" stroke="#1D6B51" stroke-width="3.4" stroke-linecap="round"/>
<path d="M 748 293 L 760 300 L 748 307" fill="none" stroke="#1D6B51" stroke-width="3.4" stroke-linecap="round" stroke-linejoin="round"/>
<path d="M 758 409.0 C 758.5 409.0, 758.5 444, 753 444" fill="none" stroke="#B72F60" stroke-width="3.4" stroke-linecap="round"/>
<path d="M 748 437 L 760 444 L 748 451" fill="none" stroke="#B72F60" stroke-width="3.4" stroke-linecap="round" stroke-linejoin="round"/>
<rect x="774" y="244.0" width="352" height="112" rx="16" fill="#D4F2E6" stroke="#9FD9C2" stroke-width="1.6"/>
<rect x="774" y="262.0" width="5" height="76" rx="2.5" fill="#1D6B51"/>
<text x="798" y="294.0" font-family="DM Sans 9pt" font-weight="700" font-size="20" fill="#1D6B51">Session brief</text>
<text x="798" y="322.0" font-family="DM Sans 9pt" font-weight="500" font-size="15.5" fill="#4A5250">live threads, 3 questions</text>
<rect x="774" y="388.0" width="352" height="112" rx="16" fill="#F8DDE6" stroke="#E9A8BE" stroke-width="1.6"/>
<rect x="774" y="406.0" width="5" height="76" rx="2.5" fill="#B72F60"/>
<text x="798" y="438.0" font-family="DM Sans 9pt" font-weight="700" font-size="20" fill="#B72F60">Draft follow-up</text>
<text x="798" y="466.0" font-family="DM Sans 9pt" font-weight="500" font-size="15.5" fill="#4A5250">summary + client message</text>
<text x="73" y="556" font-family="Plus Jakarta Sans" font-weight="800" font-size="17" fill="#1A1F1E" letter-spacing="0.5">ORIN</text>
<text x="1126" y="556" text-anchor="end" font-family="DM Sans 9pt" font-weight="500" font-size="15" fill="#3F6B6B">orinlearning.com</text>
</svg>