<svg xmlns="http://www.w3.org/2000/svg" width="1200" height="600" viewBox="0 0 1200 600">
<defs>
<linearGradient id="edge" x1="0" y1="0" x2="1" y2="1"><stop offset="0" stop-color="#2E6B54"/><stop offset="1" stop-color="#8F2049"/></linearGradient>
</defs>
<rect width="1200" height="600" fill="#0D1A15"/>
<rect x="22" y="22" width="1156" height="556" rx="30" fill="#13241D" stroke="url(#edge)" stroke-width="2.5"/>
<text x="74" y="86" font-family="DM Sans 9pt" font-weight="700" font-size="13" letter-spacing="3.2" fill="#5FE0B0">THE COACH’S AI STARTER KIT</text>
<text x="72" y="138" font-family="Plus Jakarta Sans" font-weight="800" font-size="44" fill="#F3F7F4">Less busywork. <tspan fill="#5FE0B0">More presence.</tspan></text>
<rect x="74" y="240" width="290" height="248" rx="18" fill="#172A22" stroke="#263d33" stroke-width="1.5"/>
<text x="100" y="284" font-family="DM Sans 9pt" font-weight="700" font-size="20" fill="#F3F7F4">Raw notes</text>
<rect x="100" y="318" width="216" height="7" rx="3.5" fill="#3A4F46" opacity="0.85"/>
<rect x="103" y="345" width="188" height="7" rx="3.5" fill="#3A4F46" opacity="0.85"/>
<line x1="100" y1="348.5" x2="295" y2="348.5" stroke="#F2A6C0" stroke-width="2.4" stroke-linecap="round" opacity="0.9"/>
<rect x="100" y="372" width="230" height="7" rx="3.5" fill="#3A4F46" opacity="0.85"/>
<rect x="103" y="399" width="150" height="7" rx="3.5" fill="#3A4F46" opacity="0.85"/>
<rect x="100" y="426" width="200" height="7" rx="3.5" fill="#3A4F46" opacity="0.85"/>
<line x1="97" y1="429.5" x2="304" y2="429.5" stroke="#F2A6C0" stroke-width="2.4" stroke-linecap="round" opacity="0.9"/>
<rect x="103" y="453" width="168" height="7" rx="3.5" fill="#3A4F46" opacity="0.85"/>
<line x1="386" y1="372" x2="436" y2="372" stroke="#9FB8AD" stroke-width="4" stroke-linecap="round"/>
<path d="M 432 364 L 444 372 L 432 380" fill="none" stroke="#9FB8AD" stroke-width="4" stroke-linecap="round" stroke-linejoin="round"/>
<rect x="460" y="307" width="292" height="56" rx="28.0" fill="#15332A" stroke="#2E6B54" stroke-width="1.6"/>
<circle cx="486" cy="335.0" r="5" fill="#5FE0B0"/>
<text x="504" y="341.0" font-family="DM Sans 9pt" font-weight="700" font-size="19" fill="#5FE0B0">session-prep</text>
<rect x="460" y="381" width="292" height="56" rx="28.0" fill="#3A1622" stroke="#8F2049" stroke-width="1.6"/>
<circle cx="486" cy="409.0" r="5" fill="#F2A6C0"/>
<text x="504" y="415.0" font-family="DM Sans 9pt" font-weight="700" font-size="19" fill="#F2A6C0">between-session-synth</text>
<path d="M 758 335.0 C 758.5 335.0, 758.5 300, 753 300" fill="none" stroke="#5FE0B0" stroke-width="3.4" stroke-linecap="round"/>
<path d="M 748 293 L 760 300 L 748 307" fill="none" stroke="#5FE0B0" stroke-width="3.4" stroke-linecap="round" stroke-linejoin="round"/>
<path d="M 758 409.0 C 758.5 409.0, 758.5 444, 753 444" fill="none" stroke="#F2A6C0" stroke-width="3.4" stroke-linecap="round"/>
<path d="M 748 437 L 760 444 L 748 451" fill="none" stroke="#F2A6C0" stroke-width="3.4" stroke-linecap="round" stroke-linejoin="round"/>
<rect x="774" y="244.0" width="352" height="112" rx="16" fill="#15332A" stroke="#2E6B54" stroke-width="1.6"/>
<rect x="774" y="262.0" width="5" height="76" rx="2.5" fill="#5FE0B0"/>
<text x="798" y="294.0" font-family="DM Sans 9pt" font-weight="700" font-size="20" fill="#5FE0B0">Session brief</text>
<text x="798" y="322.0" font-family="DM Sans 9pt" font-weight="500" font-size="15.5" fill="#C4D2CB">live threads, 3 questions</text>
<rect x="774" y="388.0" width="352" height="112" rx="16" fill="#3A1622" stroke="#8F2049" stroke-width="1.6"/>
<rect x="774" y="406.0" width="5" height="76" rx="2.5" fill="#F2A6C0"/>
<text x="798" y="438.0" font-family="DM Sans 9pt" font-weight="700" font-size="20" fill="#F2A6C0">Draft follow-up</text>
<text x="798" y="466.0" font-family="DM Sans 9pt" font-weight="500" font-size="15.5" fill="#C4D2CB">summary + client message</text>
<text x="73" y="556" font-family="Plus Jakarta Sans" font-weight="800" font-size="17" fill="#F3F7F4" letter-spacing="0.5">ORIN</text>
<text x="1126" y="556" text-anchor="end" font-family="DM Sans 9pt" font-weight="500" font-size="15" fill="#7FB7A0">orinlearning.com</text>
</svg>